# xmcd
#
# Track frame offsets:
#	151
#	4392
#	24436
#	39504
#	56707
#	74798
#	84017
#	111500
#	130370
#	148224
#	168740
#	191566
#	211679
#	230130
#	247285
#	264909
#	285311
#	299975
#
# Disc length: 4266 seconds
#
# Revision: 0
# Processed by: cddbd v1.5.1PL0 Copyright (c) Steve Scherf et al.
# Submitted via: dBpowerAMP V4.0
#
DISCID=2210a812
DTITLE=Ruff Ryders - Unfinished Business Volume 1
DYEAR=2005
DGENRE=Rap
TTITLE0=Ruff Ryders Radio (Skit)
TTITLE1=DMX feat. Eve and Jadakiss - We're Back
TTITLE2=Infa.Red and Cross - Freestyle
TTITLE3=Drang-On feat. Styles P - Respect My Gangsta
TTITLE4=Jadakiss feat. 2Pac - You Ain't Shit
TTITLE5=Drag-On - Freestyle
TTITLE6=DMX feat. Infa.Red and Cross, Sheek and Drag-On - Untouchable
TTITLE7=Aja - You Can Get It
TTITLE8=Drag-On - Put Your Drinks Down
TTITLE9=Jin - Learn Chinese
TTITLE10=Sheek Louch feat. D-Block - Dont Mean Nothin' To Me
TTITLE11=DMX feat. Drag-On, Sheek, Eve, Jadakiss and Styles - Where The Hood At (Remix)
TTITLE12=Drag-On feat. Eve and Aja - You Had Me (Remix)
TTITLE13=I Can Di feat. Drag-On - Can't Believe (Remix)
TTITLE14=Drag-On - Put Your Drinks Down (Clean)
TTITLE15=Jin - Learn Cjinese (Clean)
TTITLE16=Infa.Red and Cross - Freestyle (Clean)
TTITLE17=DMX feat. Drag-On, Sheek, Eve, Jadakiss and Styles - Where The Hood At (Clean Remix)
EXTD=
EXTT0=
EXTT1=
EXTT2=
EXTT3=
EXTT4=
EXTT5=
EXTT6=
EXTT7=
EXTT8=
EXTT9=
EXTT10=
EXTT11=
EXTT12=
EXTT13=
EXTT14=
EXTT15=
EXTT16=
EXTT17=
PLAYORDER=
